<mxfile host="app.diagrams.net" agent="Mozilla/5.0 (Windows NT 10.0; Win64; x64) AppleWebKit/537.36 (KHTML, like Gecko) Chrome/131.0.0.0 Safari/537.36" version="26.0.4">
  <diagram name="Page-1" id="yAkXH8IMjvDtaK4W3d20">
    <mxGraphModel dx="1434" dy="738" grid="1" gridSize="10" guides="1" tooltips="1" connect="1" arrows="1" fold="1" page="1" pageScale="1" pageWidth="827" pageHeight="1169" math="0" shadow="0">
      <root>
        <mxCell id="0" />
        <mxCell id="1" parent="0" />
        <mxCell id="25eeUklhst-6jBubaOkg-1" value="&lt;div&gt;&lt;div&gt;Inventory&lt;/div&gt;&lt;/div&gt;" style="whiteSpace=wrap;html=1;aspect=fixed;" vertex="1" parent="1">
          <mxGeometry x="530" y="80" width="80" height="80" as="geometry" />
        </mxCell>
        <mxCell id="25eeUklhst-6jBubaOkg-2" value="Product" style="whiteSpace=wrap;html=1;aspect=fixed;" vertex="1" parent="1">
          <mxGeometry x="280" y="80" width="80" height="80" as="geometry" />
        </mxCell>
        <mxCell id="25eeUklhst-6jBubaOkg-14" style="edgeStyle=orthogonalEdgeStyle;rounded=0;orthogonalLoop=1;jettySize=auto;html=1;entryX=0;entryY=0.5;entryDx=0;entryDy=0;" edge="1" parent="1" source="25eeUklhst-6jBubaOkg-3" target="25eeUklhst-6jBubaOkg-6">
          <mxGeometry relative="1" as="geometry" />
        </mxCell>
        <mxCell id="25eeUklhst-6jBubaOkg-19" style="edgeStyle=orthogonalEdgeStyle;rounded=0;orthogonalLoop=1;jettySize=auto;html=1;" edge="1" parent="1" source="25eeUklhst-6jBubaOkg-3">
          <mxGeometry relative="1" as="geometry">
            <mxPoint x="110" y="670" as="targetPoint" />
          </mxGeometry>
        </mxCell>
        <mxCell id="25eeUklhst-6jBubaOkg-3" value="Search" style="whiteSpace=wrap;html=1;aspect=fixed;" vertex="1" parent="1">
          <mxGeometry x="60" y="460" width="100" height="100" as="geometry" />
        </mxCell>
        <mxCell id="25eeUklhst-6jBubaOkg-4" value="Order Managemement" style="whiteSpace=wrap;html=1;aspect=fixed;" vertex="1" parent="1">
          <mxGeometry x="440" y="300" width="100" height="100" as="geometry" />
        </mxCell>
        <mxCell id="25eeUklhst-6jBubaOkg-7" value="" style="edgeStyle=orthogonalEdgeStyle;rounded=0;orthogonalLoop=1;jettySize=auto;html=1;" edge="1" parent="1" source="25eeUklhst-6jBubaOkg-6" target="25eeUklhst-6jBubaOkg-4">
          <mxGeometry relative="1" as="geometry">
            <Array as="points">
              <mxPoint x="360" y="430" />
              <mxPoint x="490" y="430" />
            </Array>
          </mxGeometry>
        </mxCell>
        <mxCell id="25eeUklhst-6jBubaOkg-6" value="Placing" style="whiteSpace=wrap;html=1;aspect=fixed;" vertex="1" parent="1">
          <mxGeometry x="320" y="470" width="80" height="80" as="geometry" />
        </mxCell>
        <mxCell id="25eeUklhst-6jBubaOkg-11" value="" style="edgeStyle=orthogonalEdgeStyle;rounded=0;orthogonalLoop=1;jettySize=auto;html=1;" edge="1" parent="1" source="25eeUklhst-6jBubaOkg-8" target="25eeUklhst-6jBubaOkg-4">
          <mxGeometry relative="1" as="geometry" />
        </mxCell>
        <mxCell id="25eeUklhst-6jBubaOkg-8" value="Status" style="whiteSpace=wrap;html=1;aspect=fixed;" vertex="1" parent="1">
          <mxGeometry x="450" y="470" width="80" height="80" as="geometry" />
        </mxCell>
        <mxCell id="25eeUklhst-6jBubaOkg-13" style="edgeStyle=orthogonalEdgeStyle;rounded=0;orthogonalLoop=1;jettySize=auto;html=1;" edge="1" parent="1" source="25eeUklhst-6jBubaOkg-12">
          <mxGeometry relative="1" as="geometry">
            <mxPoint x="490" y="400" as="targetPoint" />
            <Array as="points">
              <mxPoint x="620" y="430" />
              <mxPoint x="491" y="430" />
            </Array>
          </mxGeometry>
        </mxCell>
        <mxCell id="25eeUklhst-6jBubaOkg-12" value="Fulfillment" style="whiteSpace=wrap;html=1;aspect=fixed;" vertex="1" parent="1">
          <mxGeometry x="580" y="470" width="80" height="80" as="geometry" />
        </mxCell>
        <mxCell id="25eeUklhst-6jBubaOkg-15" value="Users" style="whiteSpace=wrap;html=1;aspect=fixed;" vertex="1" parent="1">
          <mxGeometry x="40" y="200" width="80" height="80" as="geometry" />
        </mxCell>
        <mxCell id="25eeUklhst-6jBubaOkg-17" style="edgeStyle=orthogonalEdgeStyle;rounded=0;orthogonalLoop=1;jettySize=auto;html=1;entryX=0.5;entryY=1;entryDx=0;entryDy=0;" edge="1" parent="1" source="25eeUklhst-6jBubaOkg-16" target="25eeUklhst-6jBubaOkg-6">
          <mxGeometry relative="1" as="geometry" />
        </mxCell>
        <mxCell id="25eeUklhst-6jBubaOkg-18" style="edgeStyle=orthogonalEdgeStyle;rounded=0;orthogonalLoop=1;jettySize=auto;html=1;" edge="1" parent="1">
          <mxGeometry relative="1" as="geometry">
            <mxPoint x="109.5" y="690" as="sourcePoint" />
            <mxPoint x="109.5" y="570" as="targetPoint" />
            <Array as="points">
              <mxPoint x="110" y="690" />
              <mxPoint x="110" y="690" />
            </Array>
          </mxGeometry>
        </mxCell>
        <mxCell id="25eeUklhst-6jBubaOkg-16" value="Recommendation" style="whiteSpace=wrap;html=1;aspect=fixed;" vertex="1" parent="1">
          <mxGeometry x="60" y="680" width="100" height="100" as="geometry" />
        </mxCell>
      </root>
    </mxGraphModel>
  </diagram>
</mxfile>
